<?xml version="1.0" standalone="no"?>
<!DOCTYPE svg PUBLIC "-//W3C//DTD SVG 20010904//EN"
 "http://www.w3.org/TR/2001/REC-SVG-20010904/DTD/svg10.dtd">
<svg version="1.0" xmlns="http://www.w3.org/2000/svg"
 width="2038.000000pt" height="2038.000000pt" viewBox="0 0 2038.000000 2038.000000"
 preserveAspectRatio="xMidYMid meet">
<metadata>
Created by potrace 1.14, written by Peter Selinger 2001-2017
</metadata>
<g transform="translate(0.000000,2038.000000) scale(0.100000,-0.100000)"
fill="#000000" stroke="none">
<path d="M11638 20365 c-1 -1 -64 -6 -138 -10 -74 -3 -148 -8 -165 -10 -36 -3
-164 -15 -220 -21 -22 -2 -80 -8 -128 -15 -49 -6 -91 -8 -94 -5 -4 3 -11 2
-17 -3 -6 -5 -33 -11 -61 -15 -80 -9 -125 -16 -210 -32 -44 -8 -98 -17 -120
-20 -22 -3 -71 -13 -110 -21 -38 -8 -81 -17 -95 -19 -53 -10 -300 -67 -390
-90 -52 -14 -106 -27 -120 -30 -14 -3 -45 -11 -70 -19 -25 -8 -123 -37 -217
-65 -249 -73 -668 -219 -808 -280 -11 -5 -60 -26 -110 -46 -49 -20 -118 -49
-153 -65 -35 -16 -65 -29 -67 -29 -3 0 -40 -16 -82 -36 -43 -19 -94 -42 -113
-51 -52 -23 -436 -216 -507 -255 -33 -18 -90 -48 -125 -67 -34 -18 -71 -40
-80 -49 -10 -8 -18 -12 -18 -9 0 3 -28 -12 -62 -33 -35 -22 -79 -47 -98 -57
-19 -9 -37 -19 -40 -23 -3 -3 -34 -23 -70 -44 -375 -224 -837 -548 -1225 -860
-143 -115 -344 -282 -355 -295 -3 -3 -34 -31 -70 -61 -35 -30 -72 -62 -81 -70
-8 -8 -67 -62 -130 -120 -279 -256 -667 -661 -884 -924 -22 -26 -45 -53 -50
-59 -6 -7 -30 -37 -55 -67 -25 -30 -47 -57 -50 -60 -3 -3 -57 -70 -118 -150
-62 -80 -118 -152 -125 -161 -7 -8 -23 -31 -37 -50 -13 -19 -28 -38 -32 -44
-36 -44 -224 -313 -321 -460 -65 -99 -128 -192 -138 -207 -10 -15 -19 -29 -19
-32 0 -3 -20 -36 -44 -73 -66 -103 -202 -335 -264 -453 -31 -58 -59 -106 -64
-108 -4 -2 -8 -8 -8 -13 0 -10 -43 -102 -60 -129 -35 -54 -214 -457 -285 -640
-20 -52 -47 -122 -60 -155 -12 -33 -37 -103 -55 -155 -17 -52 -36 -104 -40
-115 -18 -41 -172 -544 -186 -606 -2 -10 -6 -27 -9 -36 -18 -66 -56 -224 -61
-253 -3 -19 -8 -38 -10 -41 -2 -3 -6 -21 -9 -40 -3 -19 -10 -54 -15 -79 -16
-75 -49 -281 -55 -350 -3 -36 -8 -72 -10 -80 -2 -8 -7 -44 -10 -80 -4 -36 -9
-78 -11 -95 -2 -16 -6 -51 -9 -76 -2 -26 -7 -62 -10 -80 -4 -19 -8 -56 -11
-84 -9 -111 -12 -142 -18 -180 -15 -101 -14 -171 2 -204 9 -19 74 -93 144
-165 l129 -131 -6 -115 c-4 -63 -8 -140 -11 -170 -3 -51 -6 -84 -19 -275 -3
-38 -7 -92 -10 -120 -2 -27 -7 -93 -10 -145 -4 -52 -8 -106 -10 -120 -2 -14
-6 -54 -10 -90 -3 -36 -8 -87 -11 -115 -6 -58 -32 -239 -39 -275 -3 -14 -8
-40 -11 -59 -7 -43 -8 -48 -34 -161 -62 -273 -75 -385 -60 -508 l8 -64 -52
-73 c-52 -72 -136 -232 -136 -260 0 -7 -4 -16 -9 -20 -5 -3 -12 -18 -16 -34
-7 -33 -26 -43 -145 -76 -104 -29 -301 -86 -395 -115 -139 -42 -227 -102 -306
-209 -79 -107 -272 -508 -321 -666 -44 -140 -82 -369 -95 -573 -12 -189 -5
-704 12 -802 2 -14 6 -61 10 -105 7 -100 23 -239 40 -350 14 -94 18 -123 20
-145 4 -34 14 -95 25 -155 14 -73 19 -105 26 -150 3 -22 10 -53 14 -70 5 -16
11 -46 14 -65 4 -27 38 -192 71 -340 1 -8 8 -33 13 -55 6 -22 13 -51 16 -65 4
-21 23 -100 41 -170 25 -95 77 -291 84 -310 5 -14 14 -45 21 -70 7 -25 16 -56
20 -70 5 -14 23 -72 40 -130 250 -824 612 -1656 994 -2287 209 -345 491 -696
681 -850 120 -96 371 -252 563 -347 129 -65 270 -93 371 -74 47 8 224 60 361
105 41 13 117 38 169 54 l94 29 81 -54 c185 -124 334 -178 491 -177 44 1 91 3
105 6 72 16 110 22 110 17 0 -2 6 0 13 5 6 6 26 13 42 17 17 4 61 16 98 27 37
12 73 22 80 23 7 2 19 6 27 9 16 6 258 81 330 102 25 7 88 27 140 43 1231 391
1735 564 1945 669 292 147 502 399 653 783 34 88 95 285 107 348 2 9 4 19 5
22 1 3 2 9 1 14 -1 4 3 24 9 42 6 19 13 51 16 71 2 21 8 61 14 88 8 45 16 105
26 190 3 27 10 124 19 245 5 58 5 547 0 625 -6 102 -16 258 -20 295 -2 19 -7
64 -10 100 -4 36 -8 76 -10 90 -2 14 -7 54 -10 90 -4 36 -9 72 -10 81 -2 9 -6
40 -10 70 -3 30 -8 61 -10 69 -2 8 -7 39 -10 69 -4 30 -9 63 -11 75 -2 12 -6
32 -8 46 -3 14 -8 41 -10 60 -11 70 -63 341 -70 361 -3 8 -7 28 -10 44 -10 57
-18 90 -43 195 -13 58 -27 116 -29 130 -3 14 -10 43 -16 65 -6 22 -12 45 -13
50 -12 58 -91 344 -148 533 -14 45 -25 85 -26 87 -1 3 -3 10 -6 17 -2 7 -36
110 -76 228 -64 193 -170 486 -203 565 -7 17 -48 116 -92 220 -43 105 -94 226
-115 270 -20 44 -37 83 -38 87 -3 13 -249 499 -287 568 -20 36 -69 119 -108
185 -39 66 -73 124 -75 129 -26 61 -376 554 -456 642 -5 6 -35 40 -65 75 -103
120 -321 331 -405 391 -5 4 -23 18 -40 32 -52 41 -207 141 -275 177 -97 52
-257 117 -335 135 -72 17 -108 24 -150 31 -61 10 -250 9 -325 -1 -75 -10 -354
-71 -470 -102 -52 -14 -102 -28 -110 -29 -8 -2 -132 -36 -275 -75 -143 -40
-273 -76 -290 -80 -16 -5 -118 -33 -225 -64 -107 -31 -256 -74 -330 -95 -74
-22 -182 -53 -240 -69 -81 -24 -108 -28 -117 -19 -6 7 -14 46 -17 87 -4 41 -9
104 -11 140 -3 36 -8 103 -11 150 -3 47 -7 110 -9 140 -18 258 -27 790 -14
811 7 11 50 14 211 15 194 1 245 5 268 19 14 9 51 90 100 220 45 120 78 204
164 423 31 78 56 145 56 148 0 10 141 338 213 494 39 85 133 279 208 430 125
249 163 323 282 541 65 121 229 402 284 487 29 45 53 85 53 87 0 6 182 275
254 375 144 202 401 529 520 661 22 25 68 77 101 114 175 199 564 588 746 746
13 11 40 35 59 52 19 18 64 57 100 87 36 30 67 57 70 60 27 28 444 355 510
400 12 8 53 38 91 65 124 91 275 191 515 342 337 212 796 448 1179 608 77 32
159 66 182 76 24 11 49 19 56 19 7 0 17 4 23 9 18 17 542 196 759 260 172 50
398 112 465 126 8 2 35 8 60 14 25 7 56 14 70 17 14 2 33 7 42 10 9 3 27 7 40
10 13 2 46 9 73 15 83 18 138 29 170 35 17 2 63 11 103 19 39 9 91 18 113 20
23 3 45 7 49 10 3 2 32 6 64 9 32 4 61 8 65 10 3 2 31 7 61 10 30 3 64 8 76
10 11 2 45 7 75 10 30 4 68 8 84 10 27 3 120 13 200 22 17 1 68 6 115 9 47 4
101 8 120 10 129 13 357 19 695 19 349 0 497 -4 675 -19 30 -2 91 -7 135 -10
44 -3 96 -8 116 -10 20 -3 54 -7 75 -10 65 -6 137 -15 169 -20 17 -3 48 -7 70
-10 49 -7 152 -23 181 -29 12 -2 37 -7 55 -10 19 -3 45 -8 59 -11 14 -3 41 -8
60 -11 56 -10 58 -11 195 -43 136 -32 380 -99 453 -125 23 -8 42 -13 42 -9 0
3 6 1 13 -5 6 -5 35 -17 62 -25 232 -71 678 -267 942 -414 54 -30 124 -93 193
-173 12 -14 34 -38 49 -55 14 -16 57 -68 95 -115 37 -47 76 -95 86 -107 10
-11 59 -79 109 -150 50 -70 95 -133 99 -138 5 -6 17 -24 27 -40 10 -17 37 -59
60 -95 45 -70 65 -104 159 -275 60 -109 126 -238 184 -365 40 -86 162 -395
162 -409 0 -6 4 -19 10 -29 9 -16 35 -96 82 -252 10 -36 21 -72 23 -80 3 -14
47 -191 60 -240 1 -5 14 -71 21 -105 2 -11 6 -31 9 -45 4 -14 8 -34 9 -45 6
-35 16 -89 22 -117 3 -15 7 -42 9 -60 3 -18 7 -44 10 -58 2 -14 7 -47 10 -75
3 -27 7 -59 9 -70 2 -11 7 -51 10 -90 4 -38 9 -81 11 -95 2 -14 7 -61 11 -105
3 -44 8 -96 10 -115 1 -19 5 -78 9 -130 3 -52 7 -122 10 -155 21 -302 22 -753
0 -1120 -19 -330 -25 -513 -17 -535 9 -25 49 -67 107 -115 27 -22 56 -47 65
-55 8 -8 49 -43 90 -77 41 -34 91 -75 110 -92 19 -17 38 -31 42 -31 4 0 9 -9
13 -20 10 -30 -155 -433 -347 -850 -17 -36 -42 -90 -56 -120 -76 -167 -527
-1065 -542 -1080 -17 -17 -80 -152 -75 -160 8 -14 -23 -70 -39 -70 -7 0 -20
-10 -28 -22 -15 -22 -15 -22 -89 39 -140 115 -337 230 -514 300 -108 43 -407
144 -600 203 -77 23 -149 46 -160 50 -39 15 -81 29 -185 60 -58 17 -116 35
-130 40 -14 5 -72 23 -130 40 -119 36 -134 40 -247 76 -45 14 -94 27 -109 30
-15 3 -31 7 -35 9 -4 3 -63 21 -131 40 -67 19 -145 42 -173 50 -68 21 -401
102 -450 110 -22 4 -67 11 -100 16 -143 23 -366 29 -528 15 -73 -6 -171 -24
-343 -61 -41 -9 -230 -73 -309 -105 -96 -38 -323 -150 -364 -179 -16 -12 -32
-21 -36 -21 -18 0 -365 -243 -416 -292 -8 -7 -41 -35 -74 -63 -143 -119 -331
-309 -476 -480 -19 -22 -38 -45 -44 -51 -5 -6 -21 -26 -35 -44 -54 -71 -120
-156 -134 -172 -8 -9 -28 -36 -43 -60 -15 -24 -31 -45 -34 -48 -4 -3 -47 -68
-97 -145 -50 -77 -95 -144 -99 -150 -5 -5 -14 -21 -21 -35 -7 -14 -22 -41 -34
-60 -12 -19 -31 -53 -43 -75 -13 -22 -38 -67 -57 -100 -59 -104 -174 -335
-232 -470 -31 -71 -61 -139 -66 -150 -5 -11 -19 -45 -30 -75 -12 -30 -26 -64
-31 -75 -5 -11 -15 -38 -23 -60 -8 -22 -33 -92 -56 -155 -65 -182 -175 -550
-204 -685 -3 -11 -19 -83 -36 -160 -17 -76 -33 -155 -36 -175 -3 -19 -12 -66
-19 -105 -8 -38 -16 -92 -20 -120 -3 -27 -8 -59 -10 -70 -7 -30 -16 -95 -20
-140 -2 -22 -7 -58 -10 -80 -21 -150 -39 -476 -38 -700 0 -155 9 -398 18 -485
8 -87 16 -157 20 -180 2 -14 6 -47 10 -75 10 -81 34 -223 56 -325 11 -52 22
-102 24 -110 1 -8 8 -35 15 -60 7 -25 14 -52 15 -60 6 -27 75 -255 84 -275 5
-11 14 -33 19 -50 53 -155 163 -395 234 -513 21 -34 38 -65 38 -68 0 -19 201
-296 289 -398 45 -51 195 -197 231 -225 19 -14 44 -34 55 -45 22 -20 157 -114
190 -132 44 -24 70 -39 75 -45 8 -10 190 -95 280 -131 116 -47 359 -125 635
-204 45 -13 403 -109 480 -129 17 -5 35 -9 40 -11 329 -90 1101 -283 1195
-298 19 -3 46 -8 60 -10 330 -61 696 -25 1030 100 60 22 88 27 140 25 192 -9
370 -1 450 20 20 4 51 11 70 13 19 3 60 13 90 21 30 9 64 19 75 22 42 11 190
67 199 75 6 4 20 8 32 8 12 0 24 4 26 8 2 4 39 25 83 46 99 48 229 124 315
184 69 48 172 124 180 132 3 3 25 21 50 40 24 19 58 46 74 60 51 44 321 313
372 371 128 145 169 193 207 242 23 28 44 54 48 57 27 22 299 414 299 431 0 5
5 9 10 9 6 0 10 4 10 9 0 5 20 42 45 83 24 40 71 125 105 188 43 83 70 122 95
139 74 50 147 163 237 370 52 119 201 580 233 721 24 109 57 245 60 249 1 4 6
22 9 41 3 19 8 46 11 60 3 14 8 39 11 55 3 17 9 48 14 70 5 22 11 56 14 75 3
19 8 45 10 56 5 25 14 77 21 132 3 20 8 48 10 62 3 14 7 44 10 68 3 23 7 61
10 85 3 23 8 62 10 87 3 25 7 63 10 85 17 139 28 381 27 625 -1 319 -12 483
-54 755 -10 72 -21 139 -22 150 -26 182 -156 637 -231 810 -117 271 -219 462
-330 611 -16 23 -39 55 -50 70 -11 15 -31 41 -45 58 -14 17 -30 38 -37 46 -6
8 -32 41 -58 72 -38 48 -44 61 -35 77 5 11 18 22 28 25 9 3 22 14 28 23 53 86
299 561 328 632 9 25 38 124 62 220 25 97 46 181 48 186 1 6 8 30 15 55 7 25
28 94 47 153 20 59 37 113 38 120 2 7 6 19 9 27 7 17 142 413 162 475 38 117
117 330 125 340 6 7 44 13 97 13 238 4 300 17 309 62 2 8 31 103 64 210 183
583 270 899 306 1115 1 11 10 61 19 110 9 50 18 104 21 120 13 79 13 77 30
215 3 30 8 64 10 75 2 11 7 45 9 75 3 30 8 78 11 105 3 28 7 73 10 100 2 28 6
73 9 100 20 208 27 765 12 918 -4 37 -10 97 -13 135 -3 37 -8 83 -10 102 -3
19 -7 53 -9 75 -2 22 -6 57 -9 78 -3 20 -8 54 -11 75 -11 76 -54 320 -70 392
-9 41 -19 89 -22 105 -3 17 -16 73 -29 125 -14 52 -27 106 -30 120 -3 14 -16
63 -30 110 -14 47 -27 94 -30 106 -2 11 -18 63 -35 115 -17 52 -32 99 -33 104
-1 6 -4 15 -7 20 -4 6 -12 28 -18 50 -7 22 -16 49 -21 60 -4 11 -27 70 -50
130 -75 196 -240 550 -320 685 -271 460 -485 756 -790 1095 -123 136 -414 417
-530 511 -19 16 -37 31 -40 35 -3 3 -32 27 -65 54 -33 26 -62 51 -65 54 -3 3
-32 26 -65 51 -75 57 -89 68 -134 107 -20 18 -39 33 -43 33 -4 0 -13 6 -20 13
-7 6 -34 28 -58 47 -25 19 -52 40 -60 47 -8 6 -76 58 -150 115 -74 56 -139
106 -145 111 -76 66 -563 420 -735 534 -159 106 -197 129 -355 220 -49 28
-110 63 -135 77 -161 93 -774 376 -814 376 -7 0 -16 3 -19 7 -10 10 -164 66
-311 114 -72 23 -140 46 -151 51 -11 5 -45 15 -75 24 -30 8 -86 24 -125 35
-75 22 -138 38 -169 45 -10 2 -33 8 -50 13 -44 14 -294 70 -386 87 -14 2 -45
8 -70 14 -25 5 -61 11 -80 14 -19 4 -44 8 -55 10 -18 3 -83 13 -140 21 -11 2
-54 8 -95 14 -41 6 -93 13 -115 15 -22 3 -65 7 -95 11 -100 11 -134 14 -215
20 -44 3 -107 8 -140 11 -66 6 -771 14 -777 9z"/>
</g>
</svg>
